# xmcd
#
# Track frame offsets: 
#        150
#        19608
#        36993
#        54392
#        63811
#        75951
#        94183
#        109778
#        126408
#        143930
#        156235
#        168138
#        181394
#        199237
#        214548
#
# Disc length: 3118 seconds
#
# Revision: 3
# Processed by: cddbd v1.5.2PL0 Copyright (c) Steve Scherf et al.
# Submitted via: ExactAudioCopy v0.99pb5
#
DISCID=c50c2c0f
DTITLE=Various Artist - Old Time Merry Christmas - Country Hits
DYEAR=2001
DGENRE=Country
TTITLE0=Donna Fargo - The First Noel
TTITLE1=John Denver - Christmas Like A Lullaby
TTITLE2=Glen Campbell - Do You Hear What I Hear
TTITLE3=Pat Boone - We Wish You A Merry Christmas
TTITLE4=Johnny Cash - Joy To The World
TTITLE5=Jean Shepard - Hark! The Herald Angels Sing
TTITLE6=Connie Smith - What Child Is This
TTITLE7=Vikki Carr - It Must Have Been The Mistletoe
TTITLE8=Janie Fricke - Angels We Have Heard On High
TTITLE9=Jimmy Sturr - Church Bells Are Ringing
TTITLE10=Faron Young - Winter Wonderland
TTITLE11=Dave Dudley - Old Time Merry Christmas
TTITLE12=Donna Fargo - O Little Town Of Bethlehem
TTITLE13=John Denver - Blue Christmas
TTITLE14=Johnny Cash - I'll Be Home For Christmas
EXTD=
EXTT0=
EXTT1=
EXTT2=
EXTT3=
EXTT4=
EXTT5=
EXTT6=
EXTT7=
EXTT8=
EXTT9=
EXTT10=
EXTT11=
EXTT12=
EXTT13=
EXTT14=
PLAYORDER=
